<svg width="625" height="129" viewBox="0 0 625 129" fill="none" xmlns="http://www.w3.org/2000/svg">
<g id="Rectangle 23">
<mask id="path-1-inside-1_302_4" fill="white">
<path d="M0 7V0.5L70.5 0.5L83 7H625V99L610.5 114.5L595 129H20V2.5V3.16987V129H0V116.5H4.08623V86H0V7Z"/>
</mask>
<path d="M625 7H629V3H625V7ZM610.5 114.5L613.233 117.421L613.33 117.33L613.421 117.233L610.5 114.5ZM0 129H-4V133H0V129ZM625 99L627.921 101.733L629 100.579V99H625ZM595 129V133H596.579L597.733 131.921L595 129ZM83 7L81.1546 10.5489L82.0222 11H83V7ZM70.5 0.5L72.3454 -3.04887L71.4778 -3.5H70.5V0.5ZM0 0.5L0 -3.5L-4 -3.5V0.5H0ZM0 86H-4V90H0V86ZM0 116.5V112.5H-4V116.5H0ZM4.08623 86H8.08623V82H4.08623V86ZM4.08623 116.5V120.5H8.08623V116.5H4.08623ZM625 7H621V99H625H629V7H625ZM625 99L622.079 96.2674L607.579 111.767L610.5 114.5L613.421 117.233L627.921 101.733L625 99ZM610.5 114.5L607.767 111.579L592.267 126.079L595 129L597.733 131.921L613.233 117.421L610.5 114.5ZM83 7V11H625V7V3H83V7ZM70.5 0.5L68.6546 4.04887L81.1546 10.5489L83 7L84.8454 3.45113L72.3454 -3.04887L70.5 0.5ZM0 7H4V0.5H0H-4V7H0ZM0 0.5L0 4.5L70.5 4.5V0.5V-3.5L0 -3.5L0 0.5ZM0 86H4V7H0H-4V86H0ZM0 129H4V116.5H0H-4V129H0ZM4.08623 86V82H0V86V90H4.08623V86ZM0 116.5V120.5H4.08623V116.5V112.5H0V116.5ZM4.08623 116.5H8.08623V86H4.08623H0.086225V116.5H4.08623ZM595 129V125H20V129V133H595V129ZM20 129V125H0V129V133H20V129ZM20 129H24V2.5H20H16V129H20ZM20 2.5H16V3.16987H20H24V2.5H20ZM20 3.16987H16V129H20H24V3.16987H20Z" fill="#0E7900" mask="url(#path-1-inside-1_302_4)"/>
</g>
</svg>
