<svg width="797" height="81" viewBox="0 0 797 81" fill="none" xmlns="http://www.w3.org/2000/svg">
<mask id="path-1-inside-1_322_11" fill="white">
<path d="M0 0L14.5 0.125V80.5V0.25L99 0.5L106 7.5L797 8V68.5L784.5 81H0V65H3V39H0V0Z"/>
</mask>
<path d="M797 8H798.5V6.50108L797.001 6.5L797 8ZM797 68.5L798.061 69.5607L798.5 69.1213V68.5H797ZM106 7.5L104.939 8.56066L105.378 8.99955L105.999 9L106 7.5ZM99 0.5L100.061 -0.56066L99.6232 -0.998163L99.0044 -0.999993L99 0.5ZM797 8H798.5V6.50108L797.001 6.5L797 8ZM797 68.5L798.061 69.5607L798.5 69.1213V68.5H797ZM106 7.5L104.939 8.56066L105.378 8.99955L105.999 9L106 7.5ZM99 0.5L100.061 -0.56066L99.6232 -0.998163L99.0044 -0.999993L99 0.5ZM797 8H798.5V6.50108L797.001 6.5L797 8ZM797 68.5L798.061 69.5607L798.5 69.1213V68.5H797ZM106 7.5L104.939 8.56066L105.378 8.99955L105.999 9L106 7.5ZM99 0.5L100.061 -0.56066L99.6232 -0.998163L99.0044 -0.999993L99 0.5ZM797 8H795.5V68.5H797H798.5V8H797ZM797 68.5L795.939 67.4393L783.439 79.9393L784.5 81L785.561 82.0607L798.061 69.5607L797 68.5ZM106 7.5L105.999 9L796.999 9.5L797 8L797.001 6.5L106.001 6L106 7.5ZM99 0.5L97.9393 1.56066L104.939 8.56066L106 7.5L107.061 6.43934L100.061 -0.56066L99 0.5ZM14.5 0.25L14.4956 1.74999L98.9956 1.99999L99 0.5L99.0044 -0.999993L14.5044 -1.24999L14.5 0.25ZM14.5 0.125H13V0.25H14.5H16V0.125H14.5ZM14.5 0.25H13V80.5H14.5H16V0.25H14.5ZM797 8H795.5V68.5H797H798.5V8H797ZM797 68.5L795.939 67.4393L783.439 79.9393L784.5 81L785.561 82.0607L798.061 69.5607L797 68.5ZM106 7.5L105.999 9L796.999 9.5L797 8L797.001 6.5L106.001 6L106 7.5ZM99 0.5L97.9393 1.56066L104.939 8.56066L106 7.5L107.061 6.43934L100.061 -0.56066L99 0.5ZM14.5 0.25L14.4956 1.74999L98.9956 1.99999L99 0.5L99.0044 -0.999993L14.5044 -1.24999L14.5 0.25ZM14.5 0.125H13V0.25H14.5H16V0.125H14.5ZM14.5 0.25H13V80.5H14.5H16V0.25H14.5ZM797 8H795.5V68.5H797H798.5V8H797ZM797 68.5L795.939 67.4393L783.439 79.9393L784.5 81L785.561 82.0607L798.061 69.5607L797 68.5ZM106 7.5L105.999 9L796.999 9.5L797 8L797.001 6.5L106.001 6L106 7.5ZM99 0.5L97.9393 1.56066L104.939 8.56066L106 7.5L107.061 6.43934L100.061 -0.56066L99 0.5ZM14.5 0.25L14.4956 1.74999L98.9956 1.99999L99 0.5L99.0044 -0.999993L14.5044 -1.24999L14.5 0.25ZM14.5 0.125H13V0.25H14.5H16V0.125H14.5ZM14.5 0.25H13V80.5H14.5H16V0.25H14.5ZM0 0L0.0258611 -2.99989L-3 -3.02597V0H0ZM797 8H800V5.00217L797.002 5L797 8ZM784.5 81V84H785.743L786.621 83.1213L784.5 81ZM0 81H-3V84H0V81ZM797 68.5L799.121 70.6213L800 69.7426V68.5H797ZM106 7.5L103.879 9.62132L104.756 10.4991L105.998 10.5L106 7.5ZM99 0.5L101.121 -1.62132L100.246 -2.49633L99.0089 -2.49999L99 0.5ZM0 39H-3V42H0V39ZM0 65V62H-3V65H0ZM3 39H6V36H3V39ZM3 65V68H6V65H3ZM14.5 0.25L14.5089 -2.74999L11.5 -2.75889V0.25H14.5ZM14.5 0.125H17.5V-2.84925L14.5259 -2.87489L14.5 0.125ZM784.5 81V78H0V81V84H784.5V81ZM797 8H794V68.5H797H800V8H797ZM797 68.5L794.879 66.3787L782.379 78.8787L784.5 81L786.621 83.1213L799.121 70.6213L797 68.5ZM106 7.5L105.998 10.5L796.998 11L797 8L797.002 5L106.002 4.5L106 7.5ZM99 0.5L96.8787 2.62132L103.879 9.62132L106 7.5L108.121 5.37868L101.121 -1.62132L99 0.5ZM0 39H3V0H0H-3V39H0ZM0 81H3V65H0H-3V81H0ZM3 39V36H0V39V42H3V39ZM0 65V68H3V65V62H0V65ZM3 65H6V39H3H0V65H3ZM14.5 0.25L14.4911 3.24999L98.9911 3.49999L99 0.5L99.0089 -2.49999L14.5089 -2.74999L14.5 0.25ZM0 0L-0.0258611 2.99989L14.4741 3.12489L14.5 0.125L14.5259 -2.87489L0.0258611 -2.99989L0 0ZM14.5 0.125H11.5V80.5H14.5H17.5V0.125H14.5ZM14.5 80.5H17.5V0.25H14.5H11.5V80.5H14.5Z" fill="white" mask="url(#path-1-inside-1_322_11)"/>
</svg>
