<svg width="817" height="101" viewBox="0 0 817 101" fill="none" xmlns="http://www.w3.org/2000/svg">
<g id="Frame 4">
<g id="Path">
<mask id="path-1-inside-1_322_9" fill="white">
<path d="M10 10L24.5 10.125V90.5V10.25L109 10.5L116 17.5L807 18V78.5L794.5 91H10V75H13V49H10V10Z"/>
</mask>
<path d="M807 18H808.5V16.5011L807.001 16.5L807 18ZM807 78.5L808.061 79.5607L808.5 79.1213V78.5H807ZM116 17.5L114.939 18.5607L115.378 18.9996L115.999 19L116 17.5ZM109 10.5L110.061 9.43934L109.623 9.00184L109.004 9.00001L109 10.5ZM807 18H808.5V16.5011L807.001 16.5L807 18ZM807 78.5L808.061 79.5607L808.5 79.1213V78.5H807ZM116 17.5L114.939 18.5607L115.378 18.9996L115.999 19L116 17.5ZM109 10.5L110.061 9.43934L109.623 9.00184L109.004 9.00001L109 10.5ZM807 18H808.5V16.5011L807.001 16.5L807 18ZM807 78.5L808.061 79.5607L808.5 79.1213V78.5H807ZM116 17.5L114.939 18.5607L115.378 18.9996L115.999 19L116 17.5ZM109 10.5L110.061 9.43934L109.623 9.00184L109.004 9.00001L109 10.5ZM807 18H805.5V78.5H807H808.5V18H807ZM807 78.5L805.939 77.4393L793.439 89.9393L794.5 91L795.561 92.0607L808.061 79.5607L807 78.5ZM116 17.5L115.999 19L806.999 19.5L807 18L807.001 16.5L116.001 16L116 17.5ZM109 10.5L107.939 11.5607L114.939 18.5607L116 17.5L117.061 16.4393L110.061 9.43934L109 10.5ZM24.5 10.25L24.4956 11.75L108.996 12L109 10.5L109.004 9.00001L24.5044 8.75001L24.5 10.25ZM24.5 10.125H23V10.25H24.5H26V10.125H24.5ZM24.5 10.25H23V90.5H24.5H26V10.25H24.5ZM807 18H805.5V78.5H807H808.5V18H807ZM807 78.5L805.939 77.4393L793.439 89.9393L794.5 91L795.561 92.0607L808.061 79.5607L807 78.5ZM116 17.5L115.999 19L806.999 19.5L807 18L807.001 16.5L116.001 16L116 17.5ZM109 10.5L107.939 11.5607L114.939 18.5607L116 17.5L117.061 16.4393L110.061 9.43934L109 10.5ZM24.5 10.25L24.4956 11.75L108.996 12L109 10.5L109.004 9.00001L24.5044 8.75001L24.5 10.25ZM24.5 10.125H23V10.25H24.5H26V10.125H24.5ZM24.5 10.25H23V90.5H24.5H26V10.25H24.5ZM807 18H805.5V78.5H807H808.5V18H807ZM807 78.5L805.939 77.4393L793.439 89.9393L794.5 91L795.561 92.0607L808.061 79.5607L807 78.5ZM116 17.5L115.999 19L806.999 19.5L807 18L807.001 16.5L116.001 16L116 17.5ZM109 10.5L107.939 11.5607L114.939 18.5607L116 17.5L117.061 16.4393L110.061 9.43934L109 10.5ZM24.5 10.25L24.4956 11.75L108.996 12L109 10.5L109.004 9.00001L24.5044 8.75001L24.5 10.25ZM24.5 10.125H23V10.25H24.5H26V10.125H24.5ZM24.5 10.25H23V90.5H24.5H26V10.25H24.5ZM10 10L10.0259 7.00011L7 6.97403V10H10ZM807 18H810V15.0022L807.002 15L807 18ZM794.5 91V94H795.743L796.621 93.1213L794.5 91ZM10 91H7V94H10V91ZM807 78.5L809.121 80.6213L810 79.7426V78.5H807ZM116 17.5L113.879 19.6213L114.756 20.4991L115.998 20.5L116 17.5ZM109 10.5L111.121 8.37868L110.246 7.50367L109.009 7.50001L109 10.5ZM10 49H7V52H10V49ZM10 75V72H7V75H10ZM13 49H16V46H13V49ZM13 75V78H16V75H13ZM24.5 10.25L24.5089 7.25001L21.5 7.24111V10.25H24.5ZM24.5 10.125H27.5V7.15075L24.5259 7.12511L24.5 10.125ZM794.5 91V88H10V91V94H794.5V91ZM807 18H804V78.5H807H810V18H807ZM807 78.5L804.879 76.3787L792.379 88.8787L794.5 91L796.621 93.1213L809.121 80.6213L807 78.5ZM116 17.5L115.998 20.5L806.998 21L807 18L807.002 15L116.002 14.5L116 17.5ZM109 10.5L106.879 12.6213L113.879 19.6213L116 17.5L118.121 15.3787L111.121 8.37868L109 10.5ZM10 49H13V10H10H7V49H10ZM10 91H13V75H10H7V91H10ZM13 49V46H10V49V52H13V49ZM10 75V78H13V75V72H10V75ZM13 75H16V49H13H10V75H13ZM24.5 10.25L24.4911 13.25L108.991 13.5L109 10.5L109.009 7.50001L24.5089 7.25001L24.5 10.25ZM10 10L9.97414 12.9999L24.4741 13.1249L24.5 10.125L24.5259 7.12511L10.0259 7.00011L10 10ZM24.5 10.125H21.5V90.5H24.5H27.5V10.125H24.5ZM24.5 90.5H27.5V10.25H24.5H21.5V90.5H24.5Z" fill="white" mask="url(#path-1-inside-1_322_9)"/>
</g>
</g>
</svg>
